<svg class="svg-icon" style="width: 1em; height: 1em;vertical-align: middle;fill: currentColor;overflow: hidden;" viewBox="0 0 1024 1024" version="1.1" xmlns="http://www.w3.org/2000/svg"><path d="M749.8 368.4c6.2 2.2 13.4 3.5 21.8 4.4 9.4 0.8 20.7 2.4 33.3 5.9 4.4 1.1 8.3 1.8 12.9 1.7 9-0.2 17.3-3.5 23.9-9.3 7.2-6.3 12.7-15.5 15.8-26.9 1.7-6.6 2.7-13.8 2.6-21.5-0.1-5.6-0.7-11.1-1.8-16.5-5-24.9-21.1-46.4-51.2-53-17.4-3.8-36.3-2.5-55.3-0.7-30.2 4.1-43.8 20-50.4 42.1-3.5 24.8 15.7 45.8 27.6 58.9 6.5 6.9 11 11.5 20.8 14.9z m-547.2 72.8c-22.3-8-40.2-24.8-52.6-45.8-8.3-14.1-14-30.1-16.9-46.5-2.8-16.3-2.8-33.4 0.5-49.6 7.6-38 32.4-70.9 78.6-81.1 24.7-5.4 48.8-3 73-0.5 20.5 2.1 41.1 4.1 59.9 0.5 22.1-4.3 42-14.1 62.1-24 83.9-41.4 128.5-41.4 212.5 0 20.1 9.9 40 19.8 62.1 24 18.8 3.6 39.4 1.6 59.9-0.5 24.2-2.4 48.4-4.9 73 0.5 46.2 10.2 71 43.1 78.6 81.1 3.3 16.2 3.3 33.3 0.5 49.6-2.8 16.4-8.6 32.4-16.9 46.5-8 13.6-18.3 25.4-30.6 34.2-17.4 12.5-38.9 19-63.6 16-0.8-0.1-1.6-0.2-2.5-0.3-1.8-0.4-3.5-0.8-5.1-1.4-31.8-9-43.3-34.9-52.3-55.2-3.9-8.9-5.5-12.7-11.3-19.2-5.2-5.7-11.4-12.5-17.2-20.3-3 47.2-6.3 98.8-46.4 139.2-27.5 27.7-27.3 50.2-27 95.2 0.2 23 1.2 47.2-3.6 69.6-3.6 16.6-10.3 32.4-23.1 46.1v55.2c0 12.3 3 28.5 7.3 43.4 4.3 14.7 9.5 27.4 14 32.8 6.3 7.6 5.3 18.9-2.2 25.2-7.6 6.3-18.9 5.3-25.2-2.2-7.6-9.1-15.3-26.7-20.9-45.8-5.2-18-8.9-37.9-8.9-53.3v-62.7c0-5.6 2.6-10.6 6.6-13.9 9.8-9 14.8-20.2 17.4-32.2 4-18.7 3.1-42.5 2.9-61.9-0.4-55-0.6-82.5 37.4-120.7 30.6-30.8 33.5-75.5 36.1-116.3 2.3-35.6 4.4-68.8 20.2-92.9-1.3-0.2-2.5-0.4-3.8-0.7-26.8-5.2-48.9-16.1-71.2-27.1-73.5-36.3-107.3-36.3-180.8 0-22.3 11-44.4 21.9-71.2 27.1-1.3 0.2-2.5 0.4-3.8 0.7 15.9 24.1 18 57.3 20.2 92.9 2.6 40.8 5.5 85.5 36.1 116.3 38 38.2 37.8 65.7 37.4 120.7-0.2 19.4-1.1 43.2 2.9 61.9 2.6 12 7.6 23.2 17.4 32.2 4 3.3 6.6 8.3 6.6 13.9v62.7c0 15.4-3.6 35.3-8.9 53.3-5.6 19.1-13.3 36.8-20.9 45.8-6.3 7.6-17.6 8.6-25.2 2.2-7.6-6.4-8.6-17.6-2.2-25.2 4.5-5.4 9.7-18.1 14-32.8 4.3-14.9 7.3-31 7.3-43.4v-55.2c-12.8-13.7-19.5-29.6-23.1-46.1-4.8-22.5-3.8-46.6-3.6-69.6 0.4-45 0.5-67.6-27-95.2-40.1-40.3-43.4-92-46.4-139.2-6.2 8.4-13.1 15.8-20 23.5-2.7 3-5.4 9.1-8.5 16-20.7 46.5-53.2 69.8-101.6 52.5z m-35.7-118.5c0 7.7 0.9 14.9 2.6 21.5 3 11.4 8.6 20.6 15.8 26.9 6.7 5.8 14.9 9.1 23.9 9.3 4.6 0.1 8.5-0.6 12.9-1.7 12.6-3.5 23.9-5.1 33.3-5.9 8.4-1 15.6-2.2 21.8-4.4 6.8-2.4 12.5-5.9 17.7-11.7 15.4-17.2 34.1-37 30.5-62.1-6.6-22.1-20.1-38-50.4-42.1-19-1.9-37.9-3.2-55.3 0.7-30 6.6-46.2 28.1-51.1 53-1 5.4-1.6 10.9-1.7 16.5z" fill="#2875A4" /><path d="M551.2 653.7c4.9 4.3 5.5 11.8 1.1 16.8s-11.9 5.5-16.8 1.1c-11.6-10.2-10.7-33.9-10.1-50.8 0.1-2.7 0.2-5.3 0.2-7 0.3-17.1 0.2-34.8 0-53.5-0.1-14.3-0.2-29.2-0.2-35.9 0-18.3 2.6-31 8.2-42.8 5.4-11.6 13.1-21.2 23.6-34.1 8.7-10.7 15.7-22.6 20.8-34.2 5.8-13.1 9.2-25.7 10.2-35.7 1.1-10.6 1.2-20.2 1.2-29 0.2-23.3 0.4-42 14.1-60.1-7.6 0.8-15.1 1.9-22.9 3.1-18.7 2.8-39.1 5.9-67.2 5.9-28.2 0-48.8-3.1-67.7-5.9-7.6-1.1-15-2.2-22.4-3 13.6 18.1 13.8 36.8 14 60.1 0.1 8.8 0.2 18.4 1.2 29 1 10.1 4.4 22.6 10.2 35.7 5.1 11.7 12.1 23.5 20.9 34.2 10.5 12.8 18.2 22.5 23.6 34.1 5.5 11.9 8.2 24.6 8.2 42.8 0 6.7-0.1 21.5-0.2 35.9-0.2 18.8-0.3 36.5 0 53.5 0 1.7 0.1 4.2 0.2 7 0.7 16.9 1.6 40.6-10.1 50.8-4.9 4.3-12.5 3.8-16.8-1.1-4.3-5-3.8-12.5 1.1-16.8 3.1-2.7 2.4-19.8 2-32-0.1-2.5-0.2-4.9-0.2-7.4-0.3-17.3-0.2-35.1 0-54.1 0.1-8.6 0.1-17.5 0.1-35.7 0-14.6-1.9-24.3-5.8-32.7-4.1-8.8-11-17.4-20.5-29-10.1-12.4-18.2-26.2-24.2-39.7-6.8-15.3-10.8-30.5-12.1-43-1.1-11.4-1.2-21.7-1.3-31.2-0.3-25.8-0.4-44.3-29-63.3-3-2-5.1-5.4-5.3-9.3-0.3-6.6 4.7-12.2 11.3-12.5 22.1-1.1 39.5 1.5 58.6 4.3 18 2.7 37.6 5.6 64.2 5.6 26.5 0 45.8-2.9 63.7-5.6 19-2.9 36.3-5.4 58.7-4.4 3.8 0.1 7.6 1.9 9.8 5.3 3.6 5.5 2.1 12.9-3.4 16.5-28.6 19-28.7 37.5-29 63.3-0.1 9.5-0.2 19.8-1.3 31.2-1.2 12.5-5.3 27.7-12.1 43-6 13.5-14.1 27.3-24.2 39.7-9.5 11.7-16.4 20.3-20.5 29-4 8.5-5.8 18.2-5.8 32.7 0 18.2 0.1 27.1 0.1 35.7 0.1 19 0.3 36.8 0 54.1 0 2.6-0.1 4.9-0.2 7.4-0.4 12.2-1.1 29.3 2 32z" fill="#2875A4" /></svg>